HIERARCHY
ROOT Root
{
  OFFSET 0.0 0.0 0.0
  CHANNELS 6 Xposition Yposition Zposition Zrotation Yrotation Xrotation
  JOINT Hips
  {
    OFFSET 0.0 100.0 0.0
    CHANNELS 6 Xposition Yposition Zposition Zrotation Yrotation Xrotation
    JOINT Spine1
    {
      OFFSET -0.013727 5.003763 -0.053727
      CHANNELS 3 Zrotation Yrotation Xrotation
      JOINT Spine2
      {
        OFFSET -0.0 7.125301 -0.029825
        CHANNELS 3 Zrotation Yrotation Xrotation
        JOINT Chest
        {
          OFFSET -1e-06 7.550063 -0.815971
          CHANNELS 3 Zrotation Yrotation Xrotation
          JOINT Neck1
          {
            OFFSET -0.181677 26.311295 -0.553348
            CHANNELS 3 Zrotation Yrotation Xrotation
            JOINT Neck2
            {
              OFFSET -3e-06 7.709397 2.302585
              CHANNELS 3 Zrotation Yrotation Xrotation
              JOINT Head
              {
                OFFSET -5e-06 6.128916 1.953709
                CHANNELS 3 Zrotation Yrotation Xrotation
                JOINT HeadEnd
                {
                  OFFSET 0.003598 16.065403 -1.835379
                  CHANNELS 3 Zrotation Yrotation Xrotation
                }
                JOINT Jaw
                {
                  OFFSET 0.002637 0.475592 3.094941
                  CHANNELS 3 Zrotation Yrotation Xrotation
                }
                JOINT LeftEye
                {
                  OFFSET 3.206381 5.380205 7.586883
                  CHANNELS 3 Zrotation Yrotation Xrotation
                }
                JOINT RightEye
                {
                  OFFSET -3.22244 5.361869 7.558234
                  CHANNELS 3 Zrotation Yrotation Xrotation
                }
              }
            }
          }
          JOINT LeftShoulder
          {
            OFFSET 1.621652 23.237164 5.113413
            CHANNELS 3 Zrotation Yrotation Xrotation
            JOINT LeftArm
            {
              OFFSET 14.919846 2e-06 -5.502326
              CHANNELS 3 Zrotation Yrotation Xrotation
              JOINT LeftForeArm
              {
                OFFSET 28.739307 0.0 -0.002588
                CHANNELS 3 Zrotation Yrotation Xrotation
                JOINT LeftHand
                {
                  OFFSET 27.093981 -1e-06 0.002609
                  CHANNELS 3 Zrotation Yrotation Xrotation
                  JOINT LeftHandThumb1
                  {
                    OFFSET 2.276482 -1.392045 3.191413
                    CHANNELS 3 Zrotation Yrotation Xrotation
                    JOINT LeftHandThumb2
                    {
                      OFFSET 4.012836 -1.828127 1.641654
                      CHANNELS 3 Zrotation Yrotation Xrotation
                      JOINT LeftHandThumb3
                      {
                        OFFSET 2.798515 0.0 -3e-06
                        CHANNELS 3 Zrotation Yrotation Xrotation
                        JOINT LeftHandThumbEnd
                        {
                          OFFSET 3.180793 -4e-06 4e-06
                          CHANNELS 3 Zrotation Yrotation Xrotation
                        }
                      }
                    }
                  }
                  JOINT LeftHandIndex1
                  {
                    OFFSET 3.247555 -0.531998 2.296169
                    CHANNELS 3 Zrotation Yrotation Xrotation
                    JOINT LeftHandIndex2
                    {
                      OFFSET 6.364578 0.01206 0.1786
                      CHANNELS 3 Zrotation Yrotation Xrotation
                      JOINT LeftHandIndex3
                      {
                        OFFSET 3.662364 0.0 0.0
                        CHANNELS 3 Zrotation Yrotation Xrotation
                        JOINT LeftHandIndex4
                        {
                          OFFSET 2.329242 4e-06 4e-06
                          CHANNELS 3 Zrotation Yrotation Xrotation
                          JOINT LeftHandIndexEnd
                          {
                            OFFSET 2.759615 -0.180537 -0.113024
                            CHANNELS 3 Zrotation Yrotation Xrotation
                          }
                        }
                      }
                    }
                  }
                  JOINT LeftHandMiddle1
                  {
                    OFFSET 3.163495 0.240981 1.000332
                    CHANNELS 3 Zrotation Yrotation Xrotation
                    JOINT LeftHandMiddle2
                    {
                      OFFSET 6.19078 -0.259278 -1.002548
                      CHANNELS 3 Zrotation Yrotation Xrotation
                      JOINT LeftHandMiddle3
                      {
                        OFFSET 4.35652 -4e-06 -1e-06
                        CHANNELS 3 Zrotation Yrotation Xrotation
                        JOINT LeftHandMiddle4
                        {
                          OFFSET 2.996877 -8e-06 0.0
                          CHANNELS 3 Zrotation Yrotation Xrotation
                          JOINT LeftHandMiddleEnd
                          {
                            OFFSET 2.304287 -0.294569 -0.031741
                            CHANNELS 3 Zrotation Yrotation Xrotation
                          }
                        }
                      }
                    }
                  }
                  JOINT LeftHandRing1
                  {
                    OFFSET 2.882643 -0.053652 -0.322543
                    CHANNELS 3 Zrotation Yrotation Xrotation
                    JOINT LeftHandRing2
                    {
                      OFFSET 5.854541 -0.486202 -1.373841
                      CHANNELS 3 Zrotation Yrotation Xrotation
                      JOINT LeftHandRing3
                      {
                        OFFSET 4.350578 0.0 3e-06
                        CHANNELS 3 Zrotation Yrotation Xrotation
                        JOINT LeftHandRing4
                        {
                          OFFSET 2.651321 7e-06 2e-06
                          CHANNELS 3 Zrotation Yrotation Xrotation
                          JOINT LeftHandRingEnd
                          {
                            OFFSET 1.936105 0.077687 -7.1e-05
                            CHANNELS 3 Zrotation Yrotation Xrotation
                          }
                        }
                      }
                    }
                  }
                  JOINT LeftHandPinky1
                  {
                    OFFSET 2.8655 -0.310005 -1.600378
                    CHANNELS 3 Zrotation Yrotation Xrotation
                    JOINT LeftHandPinky2
                    {
                      OFFSET 5.087849 -1.331141 -1.77123
                      CHANNELS 3 Zrotation Yrotation Xrotation
                      JOINT LeftHandPinky3
                      {
                        OFFSET 3.070974 4e-06 0.0
                        CHANNELS 3 Zrotation Yrotation Xrotation
                        JOINT LeftHandPinky4
                        {
                          OFFSET 1.549672 0.0 1e-06
                          CHANNELS 3 Zrotation Yrotation Xrotation
                          JOINT LeftHandPinkyEnd
                          {
                            OFFSET 1.944893 -0.157802 0.057219
                            CHANNELS 3 Zrotation Yrotation Xrotation
                          }
                        }
                      }
                    }
                  }
                }
              }
            }
          }
          JOINT RightShoulder
          {
            OFFSET -1.380118 23.180309 5.214158
            CHANNELS 3 Zrotation Yrotation Xrotation
            JOINT RightArm
            {
              OFFSET -15.037196 1.2e-05 -5.545604
              CHANNELS 3 Zrotation Yrotation Xrotation
              JOINT RightForeArm
              {
                OFFSET -28.736639 2e-06 -0.002597
                CHANNELS 3 Zrotation Yrotation Xrotation
                JOINT RightHand
                {
                  OFFSET -27.133619 -0.0 0.002613
                  CHANNELS 3 Zrotation Yrotation Xrotation
                  JOINT RightHandThumb1
                  {
                    OFFSET -2.274032 -1.383988 3.163127
                    CHANNELS 3 Zrotation Yrotation Xrotation
                    JOINT RightHandThumb2
                    {
                      OFFSET -4.011429 -1.827466 1.640914
                      CHANNELS 3 Zrotation Yrotation Xrotation
                      JOINT RightHandThumb3
                      {
                        OFFSET -2.794935 -4e-06 -3e-06
                        CHANNELS 3 Zrotation Yrotation Xrotation
                        JOINT RightHandThumbEnd
                        {
                          OFFSET -3.183852 4e-06 1e-06
                          CHANNELS 3 Zrotation Yrotation Xrotation
                        }
                      }
                    }
                  }
                  JOINT RightHandIndex1
                  {
                    OFFSET -3.253266 -0.520057 2.282866
                    CHANNELS 3 Zrotation Yrotation Xrotation
                    JOINT RightHandIndex2
                    {
                      OFFSET -6.341917 0.012471 0.178266
                      CHANNELS 3 Zrotation Yrotation Xrotation
                      JOINT RightHandIndex3
                      {
                        OFFSET -3.654871 -8e-06 -0.0
                        CHANNELS 3 Zrotation Yrotation Xrotation
                        JOINT RightHandIndex4
                        {
                          OFFSET -2.327586 0.0 1e-06
                          CHANNELS 3 Zrotation Yrotation Xrotation
                          JOINT RightHandIndexEnd
                          {
                            OFFSET -2.76179 -0.180656 -0.113078
                            CHANNELS 3 Zrotation Yrotation Xrotation
                          }
                        }
                      }
                    }
                  }
                  JOINT RightHandMiddle1
                  {
                    OFFSET -3.168106 0.246593 1.00103
                    CHANNELS 3 Zrotation Yrotation Xrotation
                    JOINT RightHandMiddle2
                    {
                      OFFSET -6.180828 -0.258836 -1.000895
                      CHANNELS 3 Zrotation Yrotation Xrotation
                      JOINT RightHandMiddle3
                      {
                        OFFSET -4.348901 0.0 -0.0
                        CHANNELS 3 Zrotation Yrotation Xrotation
                        JOINT RightHandMiddle4
                        {
                          OFFSET -3.00024 -4e-06 -2e-06
                          CHANNELS 3 Zrotation Yrotation Xrotation
                          JOINT RightHandMiddleEnd
                          {
                            OFFSET -2.30252 -0.29437 -0.031706
                            CHANNELS 3 Zrotation Yrotation Xrotation
                          }
                        }
                      }
                    }
                  }
                  JOINT RightHandRing1
                  {
                    OFFSET -2.88569 -0.067952 -0.308858
                    CHANNELS 3 Zrotation Yrotation Xrotation
                    JOINT RightHandRing2
                    {
                      OFFSET -5.854198 -0.48613 -1.373731
                      CHANNELS 3 Zrotation Yrotation Xrotation
                      JOINT RightHandRing3
                      {
                        OFFSET -4.33881 -4e-06 -0.0
                        CHANNELS 3 Zrotation Yrotation Xrotation
                        JOINT RightHandRing4
                        {
                          OFFSET -2.654903 -4e-06 4e-06
                          CHANNELS 3 Zrotation Yrotation Xrotation
                          JOINT RightHandRingEnd
                          {
                            OFFSET -1.933568 0.077527 -5.2e-05
                            CHANNELS 3 Zrotation Yrotation Xrotation
                          }
                        }
                      }
                    }
                  }
                  JOINT RightHandPinky1
                  {
                    OFFSET -2.866425 -0.342796 -1.584145
                    CHANNELS 3 Zrotation Yrotation Xrotation
                    JOINT RightHandPinky2
                    {
                      OFFSET -5.091371 -1.332055 -1.772385
                      CHANNELS 3 Zrotation Yrotation Xrotation
                      JOINT RightHandPinky3
                      {
                        OFFSET -3.062664 -4e-06 1e-06
                        CHANNELS 3 Zrotation Yrotation Xrotation
                        JOINT RightHandPinky4
                        {
                          OFFSET -1.546529 4e-06 -2e-06
                          CHANNELS 3 Zrotation Yrotation Xrotation
                          JOINT RightHandPinkyEnd
                          {
                            OFFSET -1.945119 -0.157718 0.057211
                            CHANNELS 3 Zrotation Yrotation Xrotation
                          }
                        }
                      }
                    }
                  }
                }
              }
            }
          }
        }
      }
    }
    JOINT LeftLeg
    {
      OFFSET 10.043214 -8.434526 2.595655
      CHANNELS 3 Zrotation Yrotation Xrotation
      JOINT LeftShin
      {
        OFFSET -1e-06 -43.221752 -0.802913
        CHANNELS 3 Zrotation Yrotation Xrotation
        JOINT LeftFoot
        {
          OFFSET 1e-06 -42.155094 -3.481523
          CHANNELS 3 Zrotation Yrotation Xrotation
          JOINT LeftToeBase
          {
            OFFSET 0.0 -5.059472 13.231529
            CHANNELS 3 Zrotation Yrotation Xrotation
            JOINT LeftToeEnd
            {
              OFFSET -0.009607 -1.647619 6.513017
              CHANNELS 3 Zrotation Yrotation Xrotation
            }
          }
        }
      }
    }
    JOINT RightLeg
    {
      OFFSET -10.047278 -8.29526 2.620317
      CHANNELS 3 Zrotation Yrotation Xrotation
      JOINT RightShin
      {
        OFFSET 1e-06 -43.362206 -0.805556
        CHANNELS 3 Zrotation Yrotation Xrotation
        JOINT RightFoot
        {
          OFFSET 2e-06 -42.117393 -3.478398
          CHANNELS 3 Zrotation Yrotation Xrotation
          JOINT RightToeBase
          {
            OFFSET -0.0 -5.079609 13.284196
            CHANNELS 3 Zrotation Yrotation Xrotation
            JOINT RightToeEnd
            {
              OFFSET 0.009532 -1.634378 6.460591
              CHANNELS 3 Zrotation Yrotation Xrotation
            }
          }
        }
      }
    }
  }
}
MOTION
Frames: 4
Frame Time: 0.03333333333333333
3.079489 0.0 -0.344865 0.0 0.177102 0.0 0.0 99.120018 0.0 0.058508 -0.001529 1.561558 0.037484 0.054375 -1.430318 -0.354376 0.060026 -5.807699 -0.75311 -1.899615 12.318333 -1.987184 4.77525 24.240053 -0.572213 0.864897 -3.843541 0.79057 -0.049621 -11.444101 7.7e-05 -2.2e-05 6e-06 0.030747 -0.030989 -0.034094 0.715643 -3.760379 -10.618522 -0.656797 3.708586 -10.682056 -14.072047 -2.477569 16.201967 -60.033962 -1.188109 5.266903 0.247076 -42.280792 -0.133893 -2.038778 1.955371 -1.063888 -5.882109 9.861288 0.70259 -10.936874 -0.360574 7.156204 -0.0 8.774828 -3e-06 -16.167444 18.23558 6.108622 -1.844033 2.498506 -2.507277 -10.163602 4.678947 4.62111 -20.97603 -3e-06 2e-06 -21.226294 2.4517 -3.594002 2e-06 -6e-06 -0.0 -1.362682 2.240799 -0.746322 -21.334925 0.584911 3.008324 -13.821219 -2e-06 0.0 -23.887184 -0.249079 -0.839486 -60.7127 2.780111 -1.334441 -0.294025 1.679688 0.833256 -14.218214 0.093215 1.30058 -34.212063 -0.287564 0.967169 -20.033218 0.964537 1.212841 -0.0 -0.0 0.0 -3.440389 0.788234 0.501656 -15.928191 -3.16731 2.999707 -6.338829 0.0 1e-06 -18.123453 3.648186 -4.905672 -2e-06 -0.0 0.0 8.666343 10.33432 17.610216 66.416344 3.383192 9.911702 -0.533093 34.465767 -0.241564 9.32776 -8.814265 -10.55762 2.243542 -5.255039 -3.180159 14.282896 -0.826595 6.952506 -2e-06 -12.690609 2e-06 15.853506 -18.131626 2.688875 1.665667 -1.955922 -2.878299 4.727801 -4.170589 4.993926 11.020529 3e-06 -1e-06 12.109055 -3.735718 -2.866786 1e-06 -0.0 -0.0 1.291986 -1.92855 -1.498089 14.800132 0.567468 3.86561 14.242577 -1.341738 -6.66066 19.631973 0.143925 -0.648245 49.309319 -0.450195 -6.828606 0.353029 -1.511151 -0.031939 20.222797 3.68431 2.316631 18.787281 4e-06 -1e-06 10.751631 -0.479869 1.397907 -1e-06 -1e-06 1e-06 3.273808 0.305947 -0.580111 21.48682 11.830379 2.266135 8.162933 1e-06 0.0 18.39909 -3.798986 -4.940578 5e-06 0.0 -2e-06 9.750916 13.119179 -3.682263 -0.059684 -0.133659 9.625925 -11.85529 4.382533 -5.329313 1.595416 -2.046434 -0.150229 0.0 -0.0 2e-06 -10.172723 -6.891067 -6.469838 0.020136 0.079011 9.833274 10.264943 -4.178347 -3.676822 -1.40589 1.024311 -0.187764 -0.0 -0.0 -1e-06 
2.887957 0.0 -0.396675 0.0 0.001884 0.0 0.0 99.061394 0.0 0.029825 -0.000652 1.252757 0.175098 0.027591 -1.239714 -0.316537 0.117015 -5.761879 -0.773042 -1.899407 12.350464 -2.576929 5.327292 24.448326 -0.576247 0.951342 -3.845871 0.427505 0.202301 -11.663645 7.7e-05 -2.3e-05 4e-06 0.018253 -0.005142 -0.037775 0.699052 -3.731578 -10.604995 -0.66594 3.731393 -10.669682 -13.963111 -2.348087 16.331167 -60.564949 -0.892952 4.62667 -0.076899 -43.55093 -0.044033 -1.843165 1.895342 -0.58677 -5.882111 9.861296 0.702591 -10.936877 -0.360574 7.156207 -1e-06 8.774833 -1e-06 -16.131777 18.201754 6.062764 -1.844034 2.498506 -2.507279 -10.163606 4.67895 4.621112 -20.976038 0.0 -0.0 -21.226301 2.451702 -3.594006 1e-06 -6e-06 -0.0 -1.362682 2.240801 -0.746324 -21.334927 0.584912 3.008324 -13.82122 1e-06 -1e-06 -23.887182 -0.249077 -0.839487 -60.603004 2.784168 -1.274206 -0.294025 1.679689 0.833256 -14.218216 0.093217 1.30058 -34.212067 -0.28756 0.967169 -20.033226 0.964538 1.212841 0.0 -0.0 -1e-06 -3.440391 0.788233 0.501657 -15.928196 -3.167311 2.999709 -6.33883 0.0 0.0 -18.123457 3.648188 -4.905678 -2e-06 0.0 -1e-06 8.441752 10.402648 17.826923 66.144012 3.796494 10.000344 -0.406739 34.618244 -0.184753 9.266332 -8.606044 -10.858951 2.243543 -5.25504 -3.180159 14.282896 -0.826595 6.952504 -2e-06 -12.69061 0.0 15.928013 -18.105764 2.658412 1.665667 -1.955923 -2.878299 4.7278 -4.17059 4.993925 11.020534 3e-06 -3e-06 12.10906 -3.735719 -2.866786 -0.0 0.0 1e-06 1.291986 -1.92855 -1.498088 14.800132 0.567468 3.865606 14.242578 -1.341737 -6.660662 19.631973 0.143927 -0.648246 49.367752 -0.42292 -6.849862 0.353029 -1.511152 -0.031941 20.222801 3.684312 2.316631 18.787283 4e-06 -3e-06 10.751631 -0.479868 1.397905 -1e-06 -1e-06 1e-06 3.273808 0.305947 -0.580111 21.48682 11.830381 2.266133 8.16293 1e-06 1e-06 18.399092 -3.798987 -4.94058 5e-06 -0.0 -2e-06 9.964506 12.918861 -3.457497 -0.084833 -0.159017 9.84235 -11.882263 4.553038 -5.475605 1.607086 -2.069273 -0.134385 0.0 -0.0 2e-06 -10.044321 -6.554667 -6.646088 0.020428 0.105421 10.704121 10.07337 -4.13885 -4.111277 -1.417914 1.007356 -0.170122 -0.0 1e-06 -1e-06 
2.598881 0.0 -0.482353 0.0 -0.028987 0.0 0.0 98.948753 0.0 0.002892 -5.1e-05 0.93327 0.304907 0.023065 -1.052823 -0.294955 0.173132 -5.708801 -0.731386 -1.869979 12.484658 -3.423395 6.076581 24.622425 -0.474935 1.136854 -3.8769 -0.078087 0.670531 -11.885524 7.7e-05 -2.3e-05 6e-06 0.022482 -0.012582 -0.037253 0.703265 -3.734151 -10.604294 -0.662946 3.719316 -10.657954 -13.849009 -2.150573 16.493898 -60.91634 -0.61152 4.351533 -0.408219 -44.93322 0.025988 -1.607535 1.738943 -0.443585 -5.882105 9.861283 0.702591 -10.936868 -0.360574 7.156203 -0.0 8.774821 -3e-06 -16.045408 18.224434 6.054463 -1.844032 2.498503 -2.507277 -10.163597 4.678944 4.621109 -20.976017 -1e-06 4e-06 -21.226276 2.451699 -3.594 1e-06 -7e-06 -0.0 -1.36268 2.240796 -0.746323 -21.334906 0.584911 3.008322 -13.821213 -2e-06 2e-06 -23.887165 -0.249077 -0.839483 -60.413578 2.81493 -1.33446 -0.294025 1.679686 0.833256 -14.218204 0.093216 1.300581 -34.21204 -0.28756 0.967173 -20.033205 0.964537 1.212844 -0.0 -0.0 -2e-06 -3.440387 0.788233 0.501654 -15.928183 -3.167308 2.999708 -6.338825 -0.0 2e-06 -18.123444 3.648182 -4.905668 -4e-06 -0.0 -1e-06 8.248571 10.488117 18.134764 65.723206 4.532697 10.442518 -0.224518 34.855274 -0.114806 8.904195 -8.269958 -11.11833 2.243541 -5.255037 -3.180159 14.282887 -0.826595 6.952501 -1e-06 -12.690605 1e-06 15.95265 -18.037952 2.645314 1.665666 -1.955921 -2.878298 4.727798 -4.170588 4.993922 11.020525 2e-06 -2e-06 12.109052 -3.735717 -2.866784 0.0 0.0 -1e-06 1.291985 -1.928549 -1.498088 14.800125 0.567467 3.865606 14.242569 -1.341736 -6.660658 19.631962 0.143925 -0.648246 49.346191 -0.403947 -6.861216 0.353029 -1.511151 -0.03194 20.222786 3.684309 2.316628 18.78727 3e-06 -2e-06 10.751624 -0.47987 1.397904 -0.0 0.0 1e-06 3.273806 0.305947 -0.58011 21.486809 11.830371 2.266132 8.162924 1e-06 0.0 18.399076 -3.798987 -4.940576 5e-06 0.0 -1e-06 10.238264 12.628766 -3.497936 -0.087234 -0.170026 10.517092 -11.916905 4.575209 -5.775559 1.623019 -2.08293 -0.074771 0.0 -1e-06 2e-06 -9.862733 -6.304442 -7.090443 0.030616 0.118897 12.183371 9.930252 -4.013531 -4.876512 -1.428832 1.020591 -0.132123 -0.0 -0.0 -1e-06 
2.14211 0.0 -0.652512 0.0 0.069558 0.0 0.0 98.792877 0.0 -0.011514 0.000129 0.623784 0.407347 0.042747 -0.761551 -0.290341 0.30682 -5.635283 -0.625918 -1.80541 12.646435 -4.650843 7.007737 24.636183 -0.244095 1.575698 -3.907989 -0.767768 1.530068 -12.199809 7.7e-05 -2.3e-05 6e-06 0.030861 -0.027279 -0.025508 0.717399 -3.743175 -10.601142 -0.661817 3.699313 -10.633437 -13.596414 -1.91373 16.643257 -61.102352 -0.479978 4.645178 -0.606233 -46.052021 0.070863 -1.292675 1.420445 -0.3631 -5.882105 9.861281 0.702592 -10.936872 -0.360575 7.156205 1e-06 8.774822 0.0 -15.89932 18.242933 6.078712 -1.844032 2.498503 -2.507277 -10.163601 4.678942 4.621109 -20.976027 -4e-06 5e-06 -21.226286 2.451695 -3.593997 -0.0 -7e-06 0.0 -1.362682 2.240798 -0.746323 -21.334917 0.584907 3.008322 -13.821215 -4e-06 4e-06 -23.887173 -0.24908 -0.839481 -60.189514 2.863418 -1.384063 -0.294024 1.679688 0.833256 -14.21821 0.093214 1.300582 -34.212063 -0.287565 0.967174 -20.033215 0.964536 1.212845 -0.0 -0.0 -1e-06 -3.440388 0.788233 0.501655 -15.928187 -3.167308 2.999708 -6.338827 -1e-06 1e-06 -18.123444 3.648181 -4.905665 -4e-06 -0.0 -2e-06 8.019729 10.620846 18.590252 65.195862 5.808416 11.706259 -0.246116 35.200157 -0.170578 8.473317 -7.816363 -10.795201 2.24354 -5.255033 -3.180158 14.282886 -0.826593 6.952502 -5e-06 -12.690597 1e-06 15.988357 -17.98785 2.634479 1.665665 -1.95592 -2.878298 4.727797 -4.170585 4.993923 11.02052 4e-06 -1e-06 12.109043 -3.735713 -2.866783 -0.0 0.0 -0.0 1.291985 -1.928548 -1.498089 14.800122 0.567469 3.865606 14.242566 -1.341734 -6.660653 19.63196 0.143927 -0.648242 49.262924 -0.416353 -6.839529 0.353028 -1.51115 -0.03194 20.222784 3.684309 2.31663 18.78726 5e-06 -0.0 10.751622 -0.479867 1.397906 -1e-06 0.0 -1e-06 3.273805 0.305947 -0.58011 21.486807 11.830369 2.266133 8.162924 2e-06 0.0 18.399075 -3.798982 -4.940572 5e-06 1e-06 -1e-06 10.558294 12.318606 -3.752577 -0.070573 -0.158885 11.385694 -11.954288 4.480371 -6.085809 1.626674 -2.088742 -0.013315 -0.0 -1e-06 2e-06 -9.596398 -6.393709 -7.816016 0.049383 0.116876 14.175611 9.805008 -3.628948 -5.844776 -1.434923 1.022347 -0.1263 -0.0 -0.0 -1e-06 
